<?xml version="1.0" encoding="utf-8"?>
<!-- Generator: Adobe Illustrator 19.1.0, SVG Export Plug-In . SVG Version: 6.00 Build 0)  -->
<svg version="1.1" id="Layer_1" xmlns="http://www.w3.org/2000/svg" xmlns:xlink="http://www.w3.org/1999/xlink" x="0px" y="0px"
	 viewBox="0 0 500 500" style="enable-background:new 0 0 500 500;" xml:space="preserve">
<g>
	<path d="M474,288c-16.3,0-32.6,0-49.4,0c0-6.3,0-12.4,0-18.6c2.1-0.2,4-0.4,6.6-0.6c-1.8-3,0.5-7.8-5.2-8.2
		c-9.9-0.7-10-0.7-11.5,8.2c2.1,0.2,4.3,0.3,6.8,0.5c0,6.1,0,12.2,0,18.4c-11.1,0-21.9,0-33.1,0c0-6.1,0-12.1,0-18.6
		c5.7,1.2,6.9-2.4,8.3-6.6c4.9-15.2,10.1-30.2,15-45.4c1-3,2.3-4.2,5.6-4.1c8.5,0.2,17,0.2,25.5,0c3.2-0.1,4.6,0.9,5.6,4
		c4.5,14.6,9.3,29.1,14.1,43.6c2.8,8.6,2.9,8.6,11.8,8.4C474,275.3,474,281.7,474,288z M422.6,237.7c-1.5,5.4-2.6,9.6-3.8,13.8
		c2.8,0,5,0,7.8,0C425.2,247,424.1,242.9,422.6,237.7z"/>
	<path d="M56.1,241.2c0,9.1,0,18.1,0,27.6c2.5,0.2,4.9,0.3,7.8,0.5c0,6.1,0,12.1,0,18.4c-13.1,0-26.1,0-39.4,0c0-5.9,0-12,0-18.4
		c2.4-0.1,4.8-0.3,7.5-0.4c0-12.4,0-24.5,0-36.8c-2.5-0.2-4.8-0.3-7.4-0.5c0-5.9,0-11.8,0-18.2c1-0.1,2.3-0.3,3.5-0.3
		c16,0,32,0.1,48-0.1c3.1,0,4.8,0.7,5.6,4c1.2,4.9,3.2,9.6,5.1,15.2c2.3-5.9,4.1-11,6.3-16c0.6-1.3,2.4-3,3.6-3
		c15.1-0.2,30.3-0.1,45.9-0.1c0,6.1,0,12,0,18.3c-2.5,0.2-5,0.5-7.8,0.8c0,12.3,0,24.4,0,36.6c2.7,0.2,5.2,0.4,7.9,0.6
		c0,6.1,0,12,0,18.6c-8.2,0-16.1,0-24,0c-7.8,0-15.6,0-23.7,0c0-6.4,0-12.3,0-18.5c2.5-0.2,4.7-0.4,7.3-0.6c0-9.5,0-18.7,0-27.9
		c-0.2-0.1-0.4-0.1-0.6-0.2c-2.8,8.8-5.7,17.6-8.4,26.5c-1.8,5.7-3.5,11.4-5,17.2c-0.7,2.7-2,3.6-4.8,3.7c-10.4,0-10.4,0.2-13.7-9.5
		c-3.8-11.3-7.6-22.7-11.5-34c-0.4-1.2-0.9-2.3-1.3-3.5C56.5,241.1,56.3,241.1,56.1,241.2z"/>
	<path d="M352.8,255.6c1.8,16.2-6.5,28.2-22.5,32c-10.7,2.6-21.5,2.3-32.1-0.9c-17.1-5.3-26.3-21.3-24.1-41.1
		c2.6-22.6,18.1-35.4,40.7-33.8c7.5,0.6,12.9,4.7,18,10.8c0.2-3.6,0.4-6.3,0.6-9.3c6.7,0,13.1,0,19.9,0c0,11.4,0,22.6,0,34.2
		c-7,0-13.9,0-20.9,0c-0.8-3.5-1.3-7.1-2.4-10.5c-1.3-4.2-4.5-6.6-9-6.7c-4.6-0.1-8.3,1.9-9.8,6.3c-3.3,9.6-3.3,19.3,0.5,28.8
		c1.9,4.7,6.6,7,11.4,6.2c5-0.8,8.2-4.1,8.9-9.4c0.3-2.1,0.2-4.3,0.3-6.8C339.1,255.6,345.8,255.6,352.8,255.6z"/>
	<path d="M185.3,231.5c0-6.3,0-12.1,0-18.2c16.5,0,32.7,0,49.2,0c0,6,0,11.8,0,18.1c-2.5,0.2-5,0.4-7.9,0.6c0,12.2,0,24.3,0,36.7
		c2.5,0.2,5,0.3,7.8,0.5c0,6,0,11.9,0,18.2c-16.1,0-32.3,0-49,0c0-5.8,0-11.8,0-18.2c2.5-0.2,4.9-0.3,7.5-0.5c0-12.3,0-24.4,0-36.8
		C190.3,231.9,187.8,231.7,185.3,231.5z"/>
	<path d="M255.1,194.5c0,37.3,0,74.7,0,112c-0.4,0-0.8,0-1.2,0c0-37.3,0-74.7,0-112C254.2,194.5,254.6,194.5,255.1,194.5z"/>
	<path d="M396,194.8c-12.5,37.4-25.1,74.8-37.6,112.1c-0.7-0.2-1.5-0.5-2.2-0.7c12.5-37.4,25.1-74.8,37.6-112.1
		C394.5,194.3,395.2,194.5,396,194.8z"/>
	<path d="M162.4,306.5c0-37.3,0-74.7,0-112c0.4,0,0.7,0,1.1,0c0,37.4,0,74.7,0,112.1C163.2,306.6,162.8,306.6,162.4,306.5z"/>
</g>
</svg>
